<svg width="40" height="40" viewBox="0 0 40 40" fill="none" xmlns="http://www.w3.org/2000/svg">
<rect width="40" height="40" rx="6" fill="#330000"/>
<path d="M20.0505 25.6017H13.6563L12.3553 29.743C12.3376 29.8186 12.2947 29.8854 12.234 29.932C12.1734 29.9787 12.0988 30.0021 12.0231 29.9984H8.78439C8.59983 29.9984 8.5352 29.8943 8.59065 29.6862L14.1268 13.3477C14.1821 13.1776 14.2376 12.9838 14.2928 12.7663C14.3654 12.3877 14.4025 12.0032 14.4036 11.6175C14.3998 11.5906 14.4022 11.563 14.4106 11.5372C14.419 11.5113 14.4332 11.4878 14.452 11.4686C14.4708 11.4493 14.4937 11.4347 14.5189 11.4261C14.5442 11.4175 14.571 11.415 14.5973 11.4188H18.9986C19.1276 11.4188 19.2014 11.4662 19.2201 11.5609L25.5035 29.7146C25.559 29.9039 25.5035 29.9986 25.3375 29.9984H21.7389C21.6771 30.0054 21.6149 29.9891 21.564 29.9526C21.5131 29.9161 21.4768 29.8618 21.4621 29.7999L20.0505 25.6017ZM14.6528 22.0277H19.0263L18.964 21.8168L18.8639 21.4828L18.7925 21.2482L18.6785 20.8789L18.4362 20.1014L18.2232 19.4122L17.6698 17.6168C17.5321 17.1704 17.3999 16.7223 17.2733 16.2726L17.1721 15.9076L17.0538 15.476L16.8732 14.807L16.8394 14.681H16.8118C16.6733 15.3618 16.5047 16.0359 16.3064 16.701L15.8957 18.0548L15.6697 18.8027L15.4416 19.5598C15.4003 19.6966 15.3594 19.8319 15.3183 19.9655L15.1958 20.3616L15.0739 20.7484L14.9527 21.1257L14.8322 21.4935C14.7922 21.6146 14.7522 21.734 14.7124 21.8519L14.6528 22.0277ZM29.2401 14.4256C28.9578 14.4372 28.6762 14.3877 28.4139 14.2801C28.1515 14.1726 27.9143 14.0095 27.7177 13.8016C27.5216 13.5846 27.3693 13.3301 27.2695 13.0526C27.1697 12.7752 27.1245 12.4802 27.1363 12.1847C27.1263 11.8922 27.1765 11.6008 27.2839 11.3296C27.3912 11.0584 27.5531 10.8134 27.7591 10.6106C28.1564 10.2198 28.6856 10.0011 29.2364 10L29.2954 10.0007C29.9598 10.0007 30.4812 10.2038 30.8595 10.6105C31.0504 10.8218 31.1988 11.0696 31.2962 11.3397C31.3935 11.6098 31.4379 11.897 31.4269 12.1847C31.4385 12.4814 31.3918 12.7774 31.2895 13.0552C31.1873 13.333 31.0316 13.5869 30.8318 13.8018C30.63 14.0056 30.3904 14.166 30.1272 14.2735C29.864 14.381 29.5825 14.4335 29.2992 14.4278L29.2401 14.4256ZM27.33 29.7146V16.156C27.33 15.9858 27.4035 15.9006 27.5515 15.9006H30.9564C31.1038 15.9006 31.1777 15.9857 31.1778 16.156V29.7146C31.1778 29.9039 31.104 29.9986 30.9564 29.9984H27.5792C27.4219 29.9984 27.3391 29.9135 27.3308 29.7437L27.33 29.7146Z" fill="#FF9A00"/>
</svg>
