<svg width="40" height="40" viewBox="0 0 40 40" fill="none" xmlns="http://www.w3.org/2000/svg">
<rect width="40" height="40" rx="6" fill="#242938"/>
<mask id="mask0_6_681" style="mask-type:luminance" maskUnits="userSpaceOnUse" x="10" y="6" width="20" height="28">
<path d="M10.6648 6H29.3352V34H10.6648V6Z" fill="white"/>
</mask>
<g mask="url(#mask0_6_681)">
<path d="M15.3333 33.9999C17.9093 33.9999 19.9999 31.9093 19.9999 29.3333V24.6666H15.3333C12.7573 24.6666 10.6665 26.7573 10.6665 29.3333C10.6665 31.9093 12.7573 33.9999 15.3333 33.9999Z" fill="#0ACF83"/>
<path d="M10.6665 20C10.6665 17.424 12.7573 15.3333 15.3333 15.3333H19.9999V24.6666H15.3333C12.7573 24.6666 10.6665 22.576 10.6665 20Z" fill="#A259FF"/>
<path d="M10.6666 10.6666C10.6666 8.09062 12.7574 6 15.3334 6H20V15.3334H15.3334C12.7574 15.3334 10.6666 13.2426 10.6666 10.6666Z" fill="#F24E1E"/>
<path d="M19.9998 6H24.6665C27.2425 6 29.3332 8.09062 29.3332 10.6666C29.3332 13.2426 27.2425 15.3334 24.6665 15.3334H19.9998V6Z" fill="#FF7262"/>
<path d="M29.3332 20C29.3332 22.576 27.2425 24.6666 24.6665 24.6666C22.0905 24.6666 19.9998 22.576 19.9998 20C19.9998 17.424 22.0905 15.3333 24.6665 15.3333C27.2425 15.3333 29.3332 17.424 29.3332 20Z" fill="#1ABCFE"/>
</g>
</svg>
