<svg width="40" height="40" viewBox="0 0 40 40" fill="none" xmlns="http://www.w3.org/2000/svg">
<rect width="40" height="40" rx="6" fill="#49021F"/>
<path d="M13.9484 11.7258V29.4427C13.9484 29.6283 13.8626 29.7209 13.6908 29.7209H10.2288C10.076 29.7209 9.99967 29.6281 10 29.4427V11.7258C10 11.5776 10.0858 11.5035 10.2574 11.5033H13.7195C13.7486 11.4993 13.7782 11.5015 13.8064 11.5098C13.8345 11.518 13.8605 11.5322 13.8825 11.5512C13.9044 11.5702 13.9218 11.5936 13.9336 11.6198C13.9453 11.646 13.9509 11.6744 13.9502 11.703L13.9484 11.7258ZM24.3755 29.9972L24.1913 29.999C22.8744 30.0185 21.5696 29.7525 20.3717 29.2203C19.2557 28.7183 18.3229 27.8987 17.6965 26.87C17.0636 25.8483 16.7395 24.5747 16.7242 23.0495L16.7237 22.9345C16.713 21.658 17.0486 20.4013 17.6967 19.291C18.3463 18.1905 19.2938 17.284 20.4362 16.6701L20.5291 16.6209C21.7687 15.9535 23.2661 15.6197 25.0211 15.6197L25.0581 15.6199L25.1403 15.6216L25.2332 15.6252L25.337 15.6304L25.4515 15.6374L25.5766 15.6463L25.8593 15.6688L25.9366 15.6752V10.1963C25.9366 10.0668 25.994 10.0015 26.1082 10.0015H29.7134C29.7367 9.99824 29.7605 10.0003 29.7828 10.0075C29.8052 10.0148 29.8255 10.027 29.8421 10.0432C29.8588 10.0594 29.8713 10.0791 29.8788 10.1008C29.8862 10.1225 29.8884 10.1456 29.885 10.1683V26.6059C29.8862 26.9493 29.9005 27.2926 29.928 27.635L29.955 27.9935L29.9788 28.3273L29.9995 28.6362C30.003 28.6939 29.9885 28.7514 29.9579 28.8011C29.9273 28.8507 29.882 28.8902 29.8279 28.9144C28.8978 29.2914 27.9291 29.5711 26.9381 29.7486C26.0925 29.9004 25.2355 29.9835 24.3757 29.9972M25.9368 26.5502V18.9573C25.7822 18.9166 25.6243 18.8887 25.4648 18.8739C25.2699 18.8548 25.0741 18.8455 24.8782 18.846C24.1838 18.8394 23.4977 18.9918 22.8754 19.291C22.2692 19.584 21.7517 20.0248 21.3733 20.5705C20.9821 21.1266 20.7865 21.8592 20.7867 22.7677C20.7728 23.374 20.8746 23.9775 21.0871 24.5476C21.26 25.0071 21.5333 25.4246 21.8883 25.7715C22.2281 26.0906 22.6395 26.3286 23.09 26.4668C23.5659 26.6166 24.0633 26.6917 24.5635 26.6895C24.8304 26.6895 25.0783 26.6801 25.3074 26.6614C25.4901 26.6481 25.6712 26.6188 25.8485 26.574L25.9368 26.5502Z" fill="#FF3366"/>
</svg>
