<svg width="40" height="40" viewBox="0 0 40 40" fill="none" xmlns="http://www.w3.org/2000/svg">
<rect width="40" height="40" rx="6" fill="#001E36"/>
<path d="M6.55173 29.3575V10.2982C6.55173 10.1593 6.61187 10.0894 6.73199 10.0894L6.92205 10.0889L7.24692 10.0854L7.69837 10.0766L9.2108 10.0448L10.8325 10.0149C11.4029 10.0052 11.9683 10 12.5289 10C14.05 10 15.3311 10.189 16.3724 10.5667C17.3116 10.8823 18.1681 11.4019 18.8797 12.0878C19.4828 12.6824 19.949 13.3998 20.2459 14.1907C20.5268 14.9603 20.6691 15.773 20.6664 16.5917C20.6664 18.1827 20.2959 19.4951 19.5553 20.5288C18.8308 21.5373 17.8204 22.3086 16.6528 22.7443L16.5526 22.7807C15.3334 23.2325 13.9832 23.3957 12.5025 23.406L12.2724 23.4067L11.9309 23.4049L11.7587 23.4025L11.5667 23.398L11.4509 23.3935L11.3806 23.3898L11.2077 23.3836L10.9963 23.3792L10.6781 23.377L10.6073 23.3768V29.3276C10.6126 29.3641 10.6092 29.4013 10.5975 29.4362C10.5858 29.4712 10.566 29.503 10.5398 29.529C10.5135 29.5551 10.4815 29.5747 10.4464 29.5863C10.4112 29.598 10.3737 29.6013 10.337 29.5961H6.76207C6.62167 29.5961 6.55173 29.5169 6.55173 29.3575ZM10.6075 13.6686V19.885C10.8471 19.9042 11.0874 19.9141 11.3278 19.9148H12.3189C13.0021 19.9126 13.6814 19.8115 14.3354 19.6149L14.4658 19.5744C15.0608 19.3989 15.5924 19.0572 15.9973 18.59C16.3736 18.1492 16.5685 17.5419 16.582 16.7678L16.5829 16.6811C16.5986 16.1041 16.4475 15.5348 16.1473 15.0407C15.8318 14.5628 15.3758 14.1931 14.8412 13.9818C14.1432 13.7123 13.3977 13.5855 12.6492 13.6091L12.2683 13.6101L12.0281 13.6122L11.7989 13.6151L11.4754 13.6214L11.2394 13.628L11.1168 13.6325L10.953 13.6402L10.8134 13.6487L10.7339 13.6549L10.6652 13.6615L10.6349 13.665L10.6075 13.6686ZM32.2763 18.7547C31.7524 18.4873 31.1968 18.2864 30.6226 18.1569L30.4897 18.1284C29.8579 17.9844 29.2129 17.905 28.5648 17.8917L28.4029 17.8897C28.0229 17.8795 27.6436 17.9248 27.2769 18.024C27.0434 18.0756 26.8359 18.2076 26.6911 18.3967C26.5933 18.548 26.5412 18.724 26.5411 18.9039C26.5466 19.0783 26.6099 19.246 26.7212 19.381C26.8805 19.5661 27.0721 19.7212 27.2868 19.8389L27.3519 19.8732C27.78 20.1021 28.2211 20.3063 28.673 20.4845C29.6807 20.8196 30.6437 21.2753 31.5405 21.8416C32.1516 22.2247 32.6572 22.7526 33.012 23.3778C33.3103 23.9698 33.4597 24.6247 33.4474 25.2866C33.4653 26.1607 33.2139 27.0193 32.7267 27.7474C32.2051 28.4865 31.4807 29.061 30.6397 29.4026C29.759 29.7871 28.6774 29.9857 27.3951 29.9987L27.2618 29.9994C26.4669 30.0074 25.673 29.9383 24.8916 29.793L24.7244 29.7607C24.0665 29.6409 23.4261 29.4405 22.8177 29.1642C22.7566 29.1328 22.7049 29.0859 22.668 29.0282C22.6311 28.9706 22.6102 28.9042 22.6076 28.8359V25.585C22.604 25.5534 22.6091 25.5215 22.6223 25.4926C22.6355 25.4637 22.6564 25.4389 22.6828 25.4208C22.7085 25.4064 22.7381 25.4 22.7676 25.4027C22.7971 25.4054 22.8251 25.4169 22.8478 25.4358C23.5662 25.8566 24.3462 26.1635 25.1598 26.3455C25.877 26.5241 26.6126 26.6192 27.3519 26.629C28.0523 26.629 28.5678 26.5393 28.8982 26.3604C29.0474 26.2926 29.1737 26.1832 29.2616 26.0456C29.3495 25.908 29.3954 25.748 29.3937 25.585C29.3937 25.3269 29.2435 25.0782 28.9433 24.8394C28.8174 24.7393 28.6368 24.6304 28.4018 24.5128L28.2894 24.458L28.1695 24.4019L28.1065 24.3734L27.9747 24.3154C27.9518 24.3055 27.9289 24.2956 27.906 24.2858L27.7626 24.2261L27.6879 24.1957L27.533 24.134L27.4526 24.1028L27.2859 24.039L27.1116 23.9743C26.1688 23.6483 25.2748 23.1968 24.4541 22.6321C23.8672 22.2266 23.3839 21.6903 23.0429 21.0662C22.7476 20.4784 22.5984 19.829 22.6076 19.1722C22.6059 18.383 22.8241 17.6088 23.2381 16.9352C23.7102 16.1936 24.3879 15.6031 25.1899 15.2352C26.0706 14.7981 27.1714 14.5792 28.4927 14.5789C29.2666 14.5727 30.0398 14.6276 30.8049 14.743C31.359 14.8128 31.9006 14.9583 32.4146 15.1755C32.4973 15.1991 32.5639 15.2597 32.5947 15.3396C32.6151 15.4124 32.6251 15.4876 32.6247 15.5633V18.5758C32.6291 18.647 32.5947 18.7152 32.5347 18.7547C32.4945 18.7745 32.4503 18.7848 32.4055 18.7848C32.3606 18.7848 32.3164 18.7745 32.2763 18.7547Z" fill="#31A8FF"/>
</svg>
