<svg width="40" height="40" viewBox="0 0 40 40" fill="none" xmlns="http://www.w3.org/2000/svg">
<rect width="40" height="40" rx="6" fill="#470137"/>
<path d="M21.0875 11.7814L15.8065 20.3201L21.4565 29.3871C21.4929 29.4506 21.503 29.5251 21.485 29.5957C21.4762 29.6259 21.4574 29.6333 21.4284 29.6344L21.3964 29.634L21.3573 29.633C21.3362 29.633 21.3125 29.634 21.2862 29.6382H17.2126L17.1326 29.6369C16.913 29.6312 16.7548 29.6004 16.6584 29.4427C16.2815 28.7234 15.9029 28.0049 15.5226 27.2872C15.1825 26.6472 14.833 26.0119 14.4744 25.3815L14.3161 25.1039C13.8871 24.3572 13.466 23.6062 13.0526 22.8511H13.0242C12.6424 23.5983 12.2496 24.3401 11.8459 25.0761C11.4387 25.8178 11.0365 26.555 10.6392 27.2872C10.2417 28.02 9.8347 28.7478 9.41839 29.4705C9.35144 29.6179 9.24017 29.6487 9.08526 29.6537L9.02078 29.6547H5.13113L5.11426 29.6552L5.05871 29.66C5.0278 29.6618 5.00928 29.6553 5.00333 29.6097C4.99266 29.5418 5.00784 29.4725 5.04598 29.415L10.5256 20.5982L5.18783 11.7538C5.13113 11.68 5.1217 11.6197 5.1594 11.5731C5.18035 11.5493 5.20666 11.5307 5.23624 11.5186C5.26582 11.5065 5.29787 11.5013 5.32985 11.5035H9.33309C9.42039 11.4988 9.50766 11.513 9.58868 11.5452C9.65647 11.583 9.71483 11.6353 9.75897 11.6983C10.0997 12.44 10.4783 13.1818 10.8948 13.9232C11.308 14.66 11.7292 15.3924 12.1582 16.1205C12.5807 16.8372 12.9737 17.5702 13.3365 18.3177H13.3649C13.7367 17.5704 14.12 16.8287 14.5148 16.0928C14.9025 15.3696 15.3001 14.6417 15.7071 13.9093C16.109 13.1863 16.5018 12.4586 16.8854 11.7261C16.9072 11.6575 16.9462 11.5953 16.999 11.5452C17.0691 11.5105 17.1479 11.496 17.2261 11.5035H20.9455C20.9797 11.4951 21.0157 11.4979 21.0482 11.5113C21.0807 11.5247 21.1078 11.5481 21.1255 11.578C21.1432 11.6078 21.1506 11.6425 21.1464 11.6768C21.1423 11.7111 21.1269 11.7431 21.1026 11.7681L21.0875 11.7814ZM29.4316 29.9969L29.2358 29.999C27.929 30.0185 26.6341 29.7525 25.4454 29.2203C24.338 28.7183 23.4123 27.8987 22.7907 26.87C22.164 25.8504 21.8422 24.5797 21.826 23.0584L21.8254 22.9345C21.8148 21.658 22.1478 20.4013 22.7909 19.291C23.4345 18.1921 24.3729 17.2867 25.5042 16.6729L25.6016 16.6211C26.8317 15.9535 28.3176 15.6197 30.0592 15.6197L30.1352 15.6205L30.2222 15.6233L30.3197 15.6275L30.4282 15.6336L30.6104 15.6463L30.8167 15.6625L30.9676 15.6754V10.1962C30.9676 10.0666 31.0245 10.0015 31.1379 10.0015H34.7155C34.7386 9.99824 34.7622 10.0003 34.7843 10.0075C34.8065 10.0148 34.8267 10.027 34.8432 10.0432C34.8597 10.0594 34.8722 10.0791 34.8796 10.1008C34.8869 10.1225 34.8891 10.1456 34.8857 10.1683V26.6059C34.8857 26.8819 34.8967 27.1792 34.9185 27.4973L34.9714 28.2188L34.9995 28.6362C35.003 28.694 34.9886 28.7514 34.9582 28.8011C34.9278 28.8507 34.8827 28.8902 34.829 28.9144C33.9061 29.2914 32.9448 29.5711 31.9614 29.7486C31.1266 29.8996 30.2804 29.9826 29.4316 29.9969ZM30.9676 26.5502V18.9573C30.8142 18.9166 30.6575 18.8887 30.4993 18.8739C30.3059 18.8548 30.1116 18.8455 29.9172 18.846C29.2282 18.8393 28.5473 18.9918 27.9298 19.291C27.3282 19.584 26.8146 20.0248 26.4392 20.5705C26.0644 21.1075 25.8704 21.8088 25.8577 22.6743L25.8571 22.7677C25.8432 23.374 25.9443 23.9775 26.1551 24.5476C26.3268 25.0071 26.5981 25.4247 26.9504 25.7715C27.2875 26.0906 27.6957 26.3286 28.1427 26.4668C28.6149 26.6166 29.1085 26.6917 29.6049 26.6895C29.8697 26.6895 30.1157 26.6801 30.343 26.6614C30.5243 26.6481 30.7041 26.6188 30.88 26.574L30.9676 26.5502Z" fill="#FF61F6"/>
</svg>
